HIERARCHY
ROOT Hips
{
	OFFSET 0.00000 0.00000 0.00000
	CHANNELS 6 Xposition Yposition Zposition Zrotation Yrotation Xrotation 
	JOINT RightUpLegDummy
	{
		OFFSET 0 0 0
		CHANNELS 3 Zrotation Yrotation Xrotation
		JOINT RightUpLeg
		{
			OFFSET -3.52197 -3.41223 0.04002
			CHANNELS 3 Zrotation Yrotation Xrotation
			JOINT RightLeg
			{
				OFFSET 0.00006 -17.42390 1.60435
				CHANNELS 3 Zrotation Yrotation Xrotation
				JOINT RightFoot
				{
					OFFSET 0.06153 -16.50078 -1.63901
					CHANNELS 3 Zrotation Yrotation Xrotation
					JOINT RightToes
					{
						OFFSET 0.00298 -1.73825 3.34613
						CHANNELS 3 Zrotation Yrotation Xrotation
						End Site
						{
							OFFSET 0.00480 -0.05416 3.85043
						}
					}
				}
			}
		}
	}
	JOINT SpineDummy
	{
		OFFSET 0 0 0
		CHANNELS 3 Zrotation Yrotation Xrotation
		JOINT Spine
		{
			OFFSET 0.00000 4.68130 0.00000
			CHANNELS 3 Zrotation Yrotation Xrotation
			JOINT Spine1
			{
				OFFSET -0.00000 10.10138 0.05002
				CHANNELS 3 Zrotation Yrotation Xrotation
				JOINT HEadDummy
				{
					OFFSET 0 0 0
					CHANNELS 3 Zrotation Yrotation Xrotation
					JOINT Head
					{
						OFFSET -0.00000 3.43865 0.00438
						CHANNELS 3 Zrotation Yrotation Xrotation
						End Site
						{
							OFFSET -0.11417 5.02924 0.98962
						}
					}
				}
				JOINT LeftShoulder1Dummy
				{
					OFFSET 0 0 0
					CHANNELS 3 Zrotation Yrotation Xrotation
					JOINT LeftShoulder1
					{
						OFFSET 3.53937 -0.14262 -0.08662
						CHANNELS 3 Zrotation Yrotation Xrotation
						JOINT LeftArm
						{
							OFFSET 4.04833 -0.00133 0.12681
							CHANNELS 3 Zrotation Yrotation Xrotation
							JOINT LeftForeArm
							{
								OFFSET 10.33880 -0.01036 -0.55515
								CHANNELS 3 Zrotation Yrotation Xrotation
								JOINT LeftHand
								{
									OFFSET 8.69677 0.07543 0.40060
									CHANNELS 3 Zrotation Yrotation Xrotation
									End Site
									{
										OFFSET 5.28377 -0.21905 0.59205
									}
								}
							}
						}
					}
				}
				JOINT RightShoulderDummy
				{
					OFFSET 0 0 0
					CHANNELS 3 Zrotation Yrotation Xrotation
					JOINT RightShoulder
					{
						OFFSET -3.53937 -0.14262 -0.08660
						CHANNELS 3 Zrotation Yrotation Xrotation
						JOINT RightArm
						{
							OFFSET -4.04833 -0.00133 0.12683
							CHANNELS 3 Zrotation Yrotation Xrotation
							JOINT RightForeArm
							{
								OFFSET -10.37987 -0.01039 -0.55511
								CHANNELS 3 Zrotation Yrotation Xrotation
								JOINT RightHand
								{
									OFFSET -8.67398 0.07538 0.40058
									CHANNELS 3 Zrotation Yrotation Xrotation
									End Site
									{
										OFFSET -5.24810 -0.21916 0.59204
									}
								}
							}
						}
					}
				}
			}
		}
	}
	JOINT LeftUpLegDummy
	{
		OFFSET 0 0 0
		CHANNELS 3 Zrotation Yrotation Xrotation
		JOINT LeftUpLeg
		{
			OFFSET 3.52197 -3.41223 0.04002
			CHANNELS 3 Zrotation Yrotation Xrotation
			JOINT LeftLeg
			{
				OFFSET -0.00012 -17.42399 1.60337
				CHANNELS 3 Zrotation Yrotation Xrotation
				JOINT LeftFoot
				{
					OFFSET -0.09972 -16.50070 -1.63802
					CHANNELS 3 Zrotation Yrotation Xrotation
					JOINT LeftToes
					{
						OFFSET -0.01575 -1.73823 3.34611
						CHANNELS 3 Zrotation Yrotation Xrotation
						End Site
						{
							OFFSET 0.03150 -0.01868 3.85031
						}
					}
				}
			}
		}
	}
}
MOTION
Frames: 8
Frame Time: 0.033333
-35.9810 39.8792 58.6817 -179.0330 1.6903 177.9460 0.0000 0.0000 0.0000 2.9818 -0.7977 1.6494 -1.3315 -3.5397 4.9454 -3.3405 0.1632 -4.6570 0.0000 -0.0000 0.0000 0.0000 0.0000 0.0000 0.2084 -0.2347 2.5759 2.8904 -0.8419 1.7482 -0.0000 0.0000 -0.0000 1.9112 -1.9461 -9.1293 -0.0000 0.0000 -0.0000 -34.5790 -3.1530 2.6961 -43.4133 -16.7454 -20.5112 -9.0643 5.2516 44.1847 13.1539 -3.9428 -1.0185 -0.0000 0.0000 -0.0000 34.2509 5.0814 3.4567 40.7921 6.3786 -14.9877 11.2690 1.4433 22.0457 -10.9310 1.2328 -0.6127 0.0000 0.0000 0.0000 2.2826 2.0336 2.7982 1.4090 3.3032 6.1281 2.1091 -0.0526 -6.8639 0.0000 0.0000 -0.0000
-35.9667 39.8792 58.6797 -179.0610 1.6950 177.9270 0.0000 0.0000 0.0000 2.9673 -0.8194 1.6687 -1.3152 -3.5193 4.9529 -3.3691 0.1651 -4.6852 0.0000 -0.0000 0.0000 0.0000 0.0000 0.0000 0.1853 -0.2793 2.5735 2.8392 -0.8780 1.7888 -0.0000 0.0000 -0.0000 2.0514 -1.9566 -9.1141 -0.0000 0.0000 -0.0000 -34.5235 -3.1530 2.6961 -43.4194 -16.7056 -20.4569 -9.1069 5.2528 44.1221 12.9238 -4.1584 -1.0301 -0.0000 0.0000 -0.0000 34.4832 5.1268 3.4953 40.5497 6.3702 -14.9538 11.2629 1.4964 22.2745 -10.5792 1.8489 -0.6437 0.0000 0.0000 0.0000 2.2833 2.0437 2.8368 1.3924 3.2916 6.1016 2.1009 -0.0521 -6.8557 0.0000 0.0000 -0.0000
-35.9434 39.8792 58.6743 -179.0540 1.7939 177.9160 0.0000 0.0000 0.0000 3.0187 -0.7887 1.6997 -1.3130 -3.4599 4.9225 -3.3868 0.1662 -4.6925 0.0000 -0.0000 0.0000 0.0000 0.0000 0.0000 0.2608 -0.2917 2.5438 2.7065 -0.8676 1.8440 -0.0000 0.0000 -0.0000 2.2264 -2.1261 -9.1187 -0.0000 0.0000 -0.0000 -34.4375 -3.1574 2.6961 -43.4291 -16.7050 -20.4809 -9.0948 5.2514 44.1805 12.7206 -4.4917 -1.0474 -0.0000 0.0000 -0.0000 34.6653 5.1585 3.5241 40.3582 6.3469 -14.8501 11.2888 1.5888 22.5103 -10.2076 2.7517 -0.6935 0.0000 0.0000 0.0000 2.3516 2.1077 2.8856 1.3593 3.3123 6.0867 2.0698 -0.0501 -6.8777 0.0000 0.0000 -0.0000
-35.9228 39.8772 58.6698 -178.9970 1.9659 177.9290 0.0000 0.0000 0.0000 3.1443 -0.6803 1.7042 -1.3539 -3.4002 4.8871 -3.3808 0.1658 -4.6756 0.0000 -0.0000 0.0000 0.0000 0.0000 0.0000 0.3692 -0.2314 2.5070 2.6551 -0.7987 1.8680 -0.0000 0.0000 -0.0000 2.2262 -2.2723 -9.1272 -0.0000 0.0000 -0.0000 -34.4200 -3.1707 2.6998 -43.4638 -16.7704 -20.6320 -8.9846 5.2457 44.4411 12.7629 -4.7837 -1.0810 -0.0000 0.0000 -0.0000 34.5851 5.1414 3.5101 40.4166 6.3474 -14.8296 11.3053 1.5857 22.5413 -10.1659 3.0894 -0.7174 0.0000 0.0000 0.0000 2.4735 2.2038 2.8916 1.3317 3.3723 6.1307 2.0212 -0.0470 -6.9339 0.0000 0.0000 -0.0000
-35.9066 39.8765 58.6681 -178.9470 2.0982 177.9620 0.0000 0.0000 0.0000 3.2503 -0.5826 1.6741 -1.3922 -3.3652 4.8762 -3.3854 0.1661 -4.6702 0.0000 -0.0000 0.0000 0.0000 0.0000 0.0000 0.3765 -0.1637 2.4682 2.7838 -0.7555 1.8736 -0.0000 0.0000 -0.0000 2.0662 -2.1365 -9.1406 -0.0000 0.0000 -0.0000 -34.5579 -3.1848 2.7149 -43.4749 -16.8389 -20.8411 -8.8383 5.2398 44.7208 12.8946 -4.9620 -1.1111 -0.0000 0.0000 -0.0000 34.3902 5.1081 3.4796 40.5632 6.4093 -15.0241 11.2456 1.3809 22.5342 -10.4085 2.6850 -0.7018 0.0000 0.0000 0.0000 2.5750 2.2804 2.8542 1.3099 3.4162 6.1912 1.9793 -0.0443 -6.9768 0.0000 0.0000 -0.0000
-35.8922 39.8762 58.6666 -178.9500 2.1428 178.0230 0.0000 0.0000 0.0000 3.2530 -0.5926 1.6133 -1.3518 -3.3126 4.8781 -3.4019 0.1672 -4.7011 0.0000 -0.0000 0.0000 0.0000 0.0000 0.0000 0.3309 -0.1417 2.3909 2.9187 -0.7599 1.9025 -0.0000 0.0000 -0.0000 1.9201 -1.8636 -9.1747 -0.0000 0.0000 -0.0000 -34.7613 -3.1998 2.7348 -43.4064 -16.8907 -20.9673 -8.7621 5.2384 44.8057 12.9443 -5.0011 -1.1196 -0.0000 0.0000 -0.0000 34.2492 5.0834 3.4573 40.6755 6.4730 -15.3082 11.1415 1.1106 22.6620 -10.6821 2.1198 -0.6735 0.0000 0.0000 0.0000 2.6073 2.3099 2.8031 1.2869 3.4265 6.1828 1.9559 -0.0428 -6.9741 0.0000 0.0000 -0.0000
-35.8789 39.8752 58.6639 -178.9850 2.1475 178.1190 0.0000 0.0000 0.0000 3.1870 -0.6731 1.5084 -1.2539 -3.2314 4.8994 -3.3817 0.1661 -4.7715 0.0000 -0.0000 0.0000 0.0000 0.0000 0.0000 0.3854 -0.1408 2.2881 2.8479 -0.7473 1.9310 -0.0000 0.0000 -0.0000 1.8563 -1.7359 -9.1669 -0.0000 0.0000 -0.0000 -34.8021 -3.2030 2.7389 -43.3436 -16.9544 -20.9102 -8.7980 5.2400 44.7293 12.9670 -4.9408 -1.1160 -0.0000 0.0000 -0.0000 34.1613 5.0589 3.4399 40.8077 6.4075 -15.4248 11.0970 1.0501 22.8090 -10.7694 1.9442 -0.6642 0.0000 0.0000 0.0000 2.5852 2.2941 2.7367 1.2846 3.4492 6.1139 1.9294 -0.0411 -6.9528 0.0000 0.0000 -0.0000
-35.8652 39.8724 58.6607 -178.9950 2.1640 178.2310 0.0000 0.0000 0.0000 3.1767 -0.6806 1.3681 -1.2177 -3.2036 4.9627 -3.3144 0.1621 -4.8604 0.0000 -0.0000 0.0000 0.0000 0.0000 0.0000 0.5644 -0.1209 2.2346 2.6467 -0.6908 1.8943 -0.0000 0.0000 -0.0000 1.7595 -1.6232 -9.0366 -0.0000 0.0000 -0.0000 -34.6305 -3.1782 2.7172 -43.4204 -17.0010 -20.7527 -8.8662 5.2395 44.7235 13.0579 -4.8618 -1.1173 -0.0000 0.0000 -0.0000 34.1305 5.0436 3.4311 40.9105 6.1735 -15.3159 11.1427 1.2412 22.8086 -10.6541 2.0853 -0.6642 0.0000 0.0000 0.0000 2.5755 2.2648 2.6341 1.3192 3.4970 6.0945 1.8726 -0.0374 -6.9631 0.0000 0.0000 -0.0000
